<svg width="8" height="16" viewBox="0 0 8 16" fill="none" xmlns="http://www.w3.org/2000/svg">
<path d="M1.13526 15.9979C0.87047 15.9985 0.613858 15.9057 0.40997 15.7357C0.295217 15.6399 0.200361 15.5224 0.130833 15.3897C0.0613047 15.257 0.0184714 15.1118 0.00478626 14.9625C-0.0088989 14.8131 0.00683311 14.6625 0.0510809 14.5193C0.0953286 14.3761 0.167222 14.243 0.262645 14.1278L5.33967 8.01564L0.443969 1.89208C0.349833 1.77543 0.279534 1.64122 0.237114 1.49715C0.194694 1.35308 0.180989 1.202 0.196785 1.05259C0.212582 0.90317 0.257569 0.75837 0.329162 0.626506C0.400755 0.494642 0.497541 0.378315 0.613958 0.284212C0.731212 0.180401 0.868525 0.102097 1.01728 0.0542161C1.16604 0.00633482 1.32302 -0.0100901 1.47838 0.00597127C1.63375 0.0220327 1.78413 0.0702341 1.9201 0.14755C2.05608 0.224867 2.1747 0.329629 2.26853 0.455262L7.7422 7.29723C7.90888 7.50127 8 7.75721 8 8.02134C8 8.28547 7.90888 8.54141 7.7422 8.74545L2.07587 15.5874C1.96218 15.7254 1.81777 15.8345 1.65434 15.9058C1.49091 15.9772 1.31308 16.0087 1.13526 15.9979Z" fill="#DE8667"/>
</svg>
