<svg width="239" height="32" viewBox="0 0 239 32" fill="none" xmlns="http://www.w3.org/2000/svg">
<path d="M216.092 23.9979C215.826 23.9985 215.568 23.9057 215.363 23.7357C215.247 23.6399 215.152 23.5224 215.082 23.3897C215.012 23.257 214.969 23.1118 214.955 22.9625C214.941 22.8131 214.957 22.6625 215.002 22.5193C215.046 22.3761 215.118 22.243 215.214 22.1278L220.323 16.0156L215.397 9.89208C215.302 9.77543 215.231 9.64122 215.189 9.49715C215.146 9.35308 215.132 9.202 215.148 9.05259C215.164 8.90317 215.209 8.75837 215.281 8.62651C215.353 8.49464 215.451 8.37832 215.568 8.28421C215.686 8.1804 215.824 8.1021 215.974 8.05422C216.123 8.00633 216.281 7.98991 216.438 8.00597C216.594 8.02203 216.745 8.07023 216.882 8.14755C217.019 8.22487 217.138 8.32963 217.233 8.45526L222.741 15.2972C222.908 15.5013 223 15.7572 223 16.0213C223 16.2855 222.908 16.5414 222.741 16.7454L217.039 23.5874C216.925 23.7254 216.779 23.8345 216.615 23.9058C216.45 23.9772 216.271 24.0087 216.092 23.9979Z" fill="black"/>
</svg>
