<svg width="700" height="508" viewBox="0 0 770 578" fill="none" xmlns="http://www.w3.org/2000/svg">
<path fill-rule="evenodd" clip-rule="evenodd" d="M449.563 3V320.8H576.233C576.233 391.011 526.491 477.485 449.298 506.64L480.85 575C647.804 541.878 767 419.042 767 237.896V3H449.563ZM735.184 237.896C735.184 386.779 645.29 499.897 498.842 538.308V538.176L491.169 521.714C567.304 477.485 607.984 389.556 607.984 320.8V289H481.379V34.7998H735.184V237.896V237.896ZM4 3V320.8H131.2C131.2 391.011 81.4576 477.485 4.26459 506.64L35.8165 575C202.77 541.878 321.437 419.042 321.437 237.896V3H4ZM289.621 237.896C289.621 386.846 199.926 500.029 53.8083 538.242L46.1353 521.78C122.204 477.551 162.95 389.622 162.95 320.866V289.066H35.8165V34.7998H289.621V237.896Z" stroke="#DE8667" stroke-opacity="0.05" stroke-width="5"/>
</svg>
