<svg width="658" height="505" viewBox="0 0 658 505" fill="none" xmlns="http://www.w3.org/2000/svg">
<path fill-rule="evenodd" clip-rule="evenodd" d="M1186.26 211.024C1182.19 292.703 1168.92 382.012 1098.35 433.996C1028.11 485.742 917.167 471.677 820.572 480.419C727.147 488.875 627.085 526.852 542.018 484.347C456.732 441.732 476.503 326.916 402.037 271.291C289.576 187.284 82.0726 204.362 17.1941 92.3105C-41.6244 -9.27514 69.548 -111.521 126.451 -204.674C185.065 -300.628 222.838 -435.864 352.424 -456.477C487.711 -477.998 599.249 -331.114 738.348 -302.01C855.51 -277.495 994.493 -373.692 1085.17 -303.158C1178.37 -230.665 1100.29 -106.204 1120.19 -4.99812C1134.79 69.2553 1189.92 137.293 1186.26 211.024Z" fill="url(#paint0_linear_76_557)"/>
<defs>
<linearGradient id="paint0_linear_76_557" x1="1097.27" y1="624.188" x2="1176.79" y2="-469.403" gradientUnits="userSpaceOnUse">
<stop stop-color="#EFB467"/>
<stop offset="1" stop-color="#DE8667"/>
</linearGradient>
</defs>
</svg>
