<svg width="310" height="1138" viewBox="0 0 310 1138" fill="none" xmlns="http://www.w3.org/2000/svg">
<path fill-rule="evenodd" clip-rule="evenodd" d="M997.752 169.671C1067.38 212.558 1139.27 267.196 1150.85 354.072C1162.39 440.55 1096.64 531.017 1057.79 619.887C1020.22 705.842 1005.33 811.827 927.118 865.918C848.705 920.149 757.593 847.539 672.986 886.023C545.21 944.143 460.269 1134.23 330.822 1137.15C213.467 1139.79 177.38 993.118 123.133 898.394C67.2558 800.822 -33.0858 702.601 11.2407 579.1C57.5176 450.165 239.958 423.129 332.44 315.228C410.338 224.344 392.943 56.2136 498.423 10.6984C606.834 -36.0815 678.324 92.2774 776.607 123.568C848.715 146.525 934.896 130.957 997.752 169.671Z" fill="url(#paint0_linear_76_617)"/>
<defs>
<linearGradient id="paint0_linear_76_617" x1="1317.03" y1="446.592" x2="396.83" y2="-149.647" gradientUnits="userSpaceOnUse">
<stop stop-color="#EFB467"/>
<stop offset="1" stop-color="#DE8667"/>
</linearGradient>
</defs>
</svg>
